<svg width="23" height="19" viewBox="0 0 23 19" fill="none" xmlns="http://www.w3.org/2000/svg">
<path d="M19.3135 7.8969V2.54184C19.3124 1.5565 18.5218 0.757997 17.5462 0.756836H5.17518C4.19962 0.757997 3.40905 1.5565 3.40789 2.54184V7.8969C1.94453 7.89862 0.758663 9.09638 0.756958 10.5744L0.756958 17.7145C0.756958 18.0435 0.936292 18.3459 1.22357 18.5012C1.51095 18.6566 1.85955 18.6396 2.1307 18.4571L3.40789 17.5971V18.607H5.17518V16.822H17.5462V18.607H19.3135V17.5971L20.5906 18.4571C20.8617 18.6396 21.2104 18.6567 21.4977 18.5014C21.7851 18.3461 21.9644 18.0436 21.9644 17.7145V10.5744C21.9627 9.09638 20.7769 7.89862 19.3135 7.8969ZM5.17518 2.54184H17.5462V7.8969H15.7789V5.21937C15.7778 4.23403 14.9872 3.43553 14.0116 3.43435H8.70976C7.7342 3.43553 6.94363 4.23403 6.94247 5.21937V7.8969H5.17518V2.54184ZM14.0116 7.8969H8.70976V5.21937H14.0116L14.0127 7.8969H14.0116ZM20.1971 16.0468L18.92 15.1869C18.7748 15.0891 18.6043 15.0369 18.4299 15.0369H4.29154C4.11709 15.0369 3.94652 15.0891 3.80135 15.1869L2.52425 16.0468V10.5744C2.5248 10.0817 2.9201 9.68247 3.40789 9.68191H19.3135C19.8013 9.68247 20.1966 10.0817 20.1971 10.5744V16.0468Z" fill="white" stroke="#C33935" stroke-width="0.6"/>
</svg>
