<svg width="22" height="22" viewBox="0 0 22 22" fill="none" xmlns="http://www.w3.org/2000/svg">
<path d="M21.3511 9.70256L11.373 0.869311C11.0961 0.624292 10.6825 0.624292 10.4057 0.869311L0.427562 9.70256C0.122877 9.9723 0.0923556 10.4405 0.359417 10.7484C0.626479 11.0561 1.09011 11.0869 1.39479 10.8171L2.16739 10.1333V21.1549C2.16739 21.5641 2.49585 21.8959 2.90108 21.8959H8.46142H13.3172H18.8775C19.2828 21.8959 19.6112 21.5641 19.6112 21.1549V10.1333L20.3838 10.8173C20.5231 10.9405 20.6955 11.001 20.8671 11.001C21.0711 11.001 21.2741 10.9156 21.4191 10.7484C21.6864 10.4405 21.6559 9.97236 21.3511 9.70256ZM9.19511 20.4139V14.3093H12.5835V20.4139L9.19511 20.4139ZM18.144 8.83998V20.4139H14.0511V13.5683C14.0511 13.159 13.7225 12.8272 13.3174 12.8272H8.46154C8.05637 12.8272 7.72785 13.159 7.72785 13.5683V20.4139H3.63483V8.83998L3.63459 8.83447L10.8893 2.41199L18.1442 8.83441L18.144 8.83998Z" fill="white" stroke="#C33535" stroke-width="0.2"/>
<path d="M9.24585 7.6297C9.24585 8.03901 9.5743 8.37075 9.97951 8.37075H11.7991C12.2043 8.37075 12.5327 8.03901 12.5327 7.6297C12.5327 7.22041 12.2043 6.88867 11.7991 6.88867H9.97951C9.57436 6.88867 9.24585 7.22041 9.24585 7.6297Z" fill="white" stroke="#C33535" stroke-width="0.2"/>
</svg>
